HIERARCHY
ROOT Hips
{
	OFFSET 0.000000 0.000000 0.000000
	CHANNELS 6 Xposition Yposition Zposition Zrotation Yrotation Xrotation 
	JOINT LeftUpLeg_virtual
	{
		OFFSET 0.000000 0.000000 0.000000
		CHANNELS 3 Zrotation Yrotation Xrotation
		JOINT LeftUpLeg
		{
			OFFSET 10.205400 -3.823500 0.155100
			CHANNELS 3 Zrotation Yrotation Xrotation
			JOINT LeftLeg
			{
				OFFSET 0.708757 -12.982077 0.567790
				CHANNELS 3 Zrotation Yrotation Xrotation
				JOINT LeftFoot
				{
					OFFSET -0.708756 -10.717838 -2.184338
					CHANNELS 3 Zrotation Yrotation Xrotation
					JOINT LeftToeBase
					{
						OFFSET 0.108149 -7.191104 7.560241
						CHANNELS 3 Zrotation Yrotation Xrotation
						End Site
						{
							OFFSET 0.000000 0.000000 0.000000
						}
					}
				}
			}
		}
	}
	JOINT RightUpLeg_virtual
	{
		OFFSET 0.000000 0.000000 0.000000
		CHANNELS 3 Zrotation Yrotation Xrotation
		JOINT RightUpLeg
		{
			OFFSET -10.205400 -3.823500 0.005500
			CHANNELS 3 Zrotation Yrotation Xrotation
			JOINT RightLeg
			{
				OFFSET -0.708756 -12.982134 0.610632
				CHANNELS 3 Zrotation Yrotation Xrotation
				JOINT RightFoot
				{
					OFFSET 0.708754 -10.717769 -1.945823
					CHANNELS 3 Zrotation Yrotation Xrotation
					JOINT RightToeBase
					{
						OFFSET -0.108140 -7.191069 7.372968
						CHANNELS 3 Zrotation Yrotation Xrotation
						End Site
						{
							OFFSET 0.000000 0.000000 0.000000
						}
					}
				}
			}
		}
	}
	JOINT Spine_virtual
	{
		OFFSET 0.000000 0.000000 0.000000
		CHANNELS 3 Zrotation Yrotation Xrotation
		JOINT Spine
		{
			OFFSET 0.000000 6.876099 0.125700
			CHANNELS 3 Zrotation Yrotation Xrotation
			JOINT Spine1
			{
				OFFSET 0.000000 8.022060 0.146608
				CHANNELS 3 Zrotation Yrotation Xrotation
				JOINT Spine2
				{
					OFFSET 0.000000 9.168068 0.167552
					CHANNELS 3 Zrotation Yrotation Xrotation
					JOINT Neck_virtual
					{
						OFFSET 0.000000 0.000000 0.000000
						CHANNELS 3 Zrotation Yrotation Xrotation
						JOINT Neck
						{
							OFFSET 0.000000 10.314075 0.188496
							CHANNELS 3 Zrotation Yrotation Xrotation
							JOINT Head
							{
								OFFSET 0.000000 7.643700 -2.377400
								CHANNELS 3 Zrotation Yrotation Xrotation
								End Site
								{
									OFFSET 0.000000 0.000000 0.000000
								}
							}
						}
					}
					JOINT LeftShoulder_virtual
					{
						OFFSET 0.000000 0.000000 0.000000
						CHANNELS 3 Zrotation Yrotation Xrotation
						JOINT LeftShoulder
						{
							OFFSET 4.392200 8.824978 0.174984
							CHANNELS 3 Zrotation Yrotation Xrotation
							JOINT LeftArm
							{
								OFFSET 8.771219 -2.981674 -0.026999
								CHANNELS 3 Zrotation Yrotation Xrotation
								JOINT LeftForeArm
								{
									OFFSET 8.512804 0.000000 -0.000000
									CHANNELS 3 Zrotation Yrotation Xrotation
									JOINT LeftHand
									{
										OFFSET 18.484802 0.000000 -0.000000
										CHANNELS 3 Zrotation Yrotation Xrotation
										End Site
										{
											OFFSET 0.000000 0.000000 0.000000
										}
									}
								}
							}
						}
					}
					JOINT RightShoulder_virtual
					{
						OFFSET 0.000000 0.000000 0.000000
						CHANNELS 3 Zrotation Yrotation Xrotation
						JOINT RightShoulder
						{
							OFFSET -4.392200 8.824993 0.141379
							CHANNELS 3 Zrotation Yrotation Xrotation
							JOINT RightArm
							{
								OFFSET -8.771282 -2.981682 -0.094208
								CHANNELS 3 Zrotation Yrotation Xrotation
								JOINT RightForeArm
								{
									OFFSET -8.494598 0.000000 0.000000
									CHANNELS 3 Zrotation Yrotation Xrotation
									JOINT RightHand
									{
										OFFSET -18.483803 0.000000 0.000001
										CHANNELS 3 Zrotation Yrotation Xrotation
										End Site
										{
											OFFSET 0.000000 0.000000 0.000000
										}
									}
								}
							}
						}
					}
				}
			}
		}
	}
}
MOTION
Frames: 11
Frame Time: 0.033333
0.856910 36.518402 -14.503325 179.871242 -2.319930 -179.918084 -3.209790 -2.096039 13.788374 -0.673424 -5.721334 -12.386119 6.717698 5.470455 16.055663 2.664401 0.511171 8.629198 0.000000 0.000000 0.000000 2.264433 -0.355308 13.225163 -2.816832 3.460244 -8.217662 -8.360849 2.986572 12.074314 11.861759 5.221912 7.615647 0.000000 0.000000 0.000000 -0.077194 1.320820 0.978949 -3.584552 0.158541 -12.314893 -0.929204 -3.457955 4.710859 -0.012356 -0.009142 0.010874 -1.277004 -1.712531 6.155591 -0.575604 1.907256 4.185484 0.000000 0.000000 0.000000 0.542003 -0.745509 3.436939 6.773555 5.359881 -5.622071 -4.570988 19.027271 -33.812558 -0.125275 -44.866171 -6.134098 0.000000 0.000000 0.000000 -3.666440 0.125649 2.716966 6.229342 -8.734991 -5.999798 22.640843 -27.275876 -40.528188 -3.492921 40.180982 -5.353068 0.000000 0.000000 0.000000 
0.856724 36.518089 -14.493190 179.829947 -2.231800 -179.926662 -3.184023 -2.110857 13.828851 -0.891776 -5.386119 -12.311720 6.720901 5.880118 16.258429 2.642413 0.522384 8.155146 0.000000 0.000000 0.000000 2.454070 -0.221612 13.336020 -3.202510 3.967349 -8.069012 -8.359334 3.327140 11.633249 12.323581 5.565774 7.746854 0.000000 0.000000 0.000000 -0.098040 1.318979 1.000585 -3.603045 0.199264 -12.307547 -0.923830 -3.412320 4.704121 0.004384 0.028094 -0.012597 -1.276880 -1.683791 6.173585 -0.565118 1.906242 4.214279 0.000000 0.000000 0.000000 0.537159 -0.738443 3.460702 6.766243 5.339889 -5.574495 -4.591093 19.036383 -33.814607 -0.132139 -44.840383 -6.141650 0.000000 0.000000 0.000000 -3.679824 0.142622 2.736343 6.230807 -8.727699 -5.994819 22.665016 -27.276987 -40.518338 -3.499455 40.202261 -5.359980 0.000000 0.000000 0.000000 
0.855579 36.520222 -14.484468 179.860505 -2.329778 -179.862650 -3.186332 -2.206617 13.789880 -0.875007 -5.408715 -12.311917 6.653761 5.840070 16.240335 2.688384 0.555154 8.166258 0.000000 0.000000 0.000000 2.496159 -0.464493 13.259669 -3.232971 3.979168 -8.213729 -8.385007 3.402487 11.808102 12.440940 5.610353 7.752767 0.000000 0.000000 0.000000 -0.081159 1.297719 0.918321 -3.596431 0.189693 -12.283653 -0.934929 -3.451648 4.713512 -0.019034 -0.004271 0.006401 -1.262146 -1.752690 6.104838 -0.546160 1.915060 4.219369 0.000000 0.000000 0.000000 0.567250 -0.719955 3.445995 6.797376 5.392547 -5.667354 -4.595607 19.056853 -33.791876 -0.165619 -44.935056 -6.089152 0.000000 0.000000 0.000000 -3.650338 0.118552 2.699918 6.220382 -8.731846 -6.032601 22.748519 -27.223442 -40.604689 -3.456610 40.196312 -5.305819 0.000000 0.000000 0.000000 
0.858750 36.524509 -14.477246 -179.983298 -2.317410 -179.921963 -3.035950 -2.113836 13.808843 -0.813849 -5.415216 -12.265168 6.616415 5.825952 16.203994 2.662073 0.529377 8.174446 0.000000 0.000000 0.000000 2.665418 -0.368833 13.295001 -3.192071 3.902377 -8.113641 -8.426576 3.346316 11.758808 12.429933 5.602574 7.770952 0.000000 0.000000 0.000000 0.021849 1.196819 1.014843 -3.524485 0.224636 -12.352759 -0.875379 -3.413170 4.717996 0.021437 0.023386 -0.004254 -1.307546 -1.551380 6.124063 -0.543782 1.897878 4.232060 0.000000 0.000000 0.000000 0.518132 -0.719101 3.448689 6.712350 5.398332 -5.416634 -4.510067 19.077893 -33.859406 -0.022722 -44.842992 -6.234294 0.000000 0.000000 0.000000 -3.722468 0.158969 2.714041 6.253683 -8.672563 -6.074223 22.731687 -27.227072 -40.528013 -3.522636 40.183949 -5.349702 0.000000 0.000000 0.000000 
0.861308 36.526760 -14.474047 -179.992669 -2.346430 -179.879370 -3.044160 -2.165302 13.768692 -0.792121 -5.329688 -12.272040 6.601732 5.890451 16.214002 2.619024 0.505615 8.173354 0.000000 0.000000 0.000000 2.666529 -0.431331 13.232687 -3.196104 3.912016 -8.162723 -8.438540 3.391284 11.804072 12.477194 5.597451 7.780924 0.000000 0.000000 0.000000 0.017306 1.264081 0.979885 -3.528725 0.232016 -12.373930 -0.872915 -3.429882 4.719550 0.015680 0.001672 0.003069 -1.294448 -1.587375 6.120477 -0.515724 1.909574 4.271262 0.000000 0.000000 0.000000 0.513725 -0.716904 3.478399 6.808056 5.475599 -5.728491 -4.583512 19.096864 -33.744136 -0.187225 -44.977783 -6.064059 0.000000 0.000000 0.000000 -3.708281 0.120533 2.689116 6.295653 -8.686919 -6.068635 22.774043 -27.212838 -40.579346 -3.496332 40.183990 -5.293954 0.000000 0.000000 0.000000 
0.861885 36.528492 -14.474581 179.977028 -2.354034 -179.937686 -3.073476 -2.141417 13.780900 -0.747495 -5.362627 -12.238757 6.539855 5.895135 16.180383 2.634396 0.509771 8.195744 0.000000 0.000000 0.000000 2.624099 -0.349729 13.263008 -3.159062 3.871809 -8.070259 -8.411486 3.364946 11.709483 12.399535 5.531414 7.765584 0.000000 0.000000 0.000000 -0.001073 1.230852 1.047257 -3.548520 0.239575 -12.416521 -0.872031 -3.436419 4.739444 0.012025 0.001347 -0.001059 -1.264541 -1.563147 6.108121 -0.451570 1.955625 4.321313 0.000000 0.000000 0.000000 0.549163 -0.723106 3.410958 6.799747 5.493075 -5.576112 -4.550412 19.164024 -33.749198 -0.170141 -44.939602 -6.078557 0.000000 0.000000 0.000000 -3.679502 0.142012 2.710712 6.309508 -8.639056 -6.044901 22.860484 -27.163900 -40.545031 -3.644303 40.195301 -5.437172 0.000000 0.000000 0.000000 
0.862258 36.526272 -14.475420 179.983380 -2.374166 -179.926813 -3.058992 -2.160353 13.774162 -0.728395 -5.373516 -12.242470 6.467069 5.964776 16.184601 2.637057 0.507975 8.202588 0.000000 0.000000 0.000000 2.614132 -0.360448 13.258221 -3.118379 3.884641 -8.049779 -8.418227 3.474947 11.701699 12.365012 5.491793 7.759506 0.000000 0.000000 0.000000 0.005472 1.215256 1.050545 -3.559378 0.247060 -12.435726 -0.868358 -3.431870 4.752565 -0.013513 0.000904 0.006520 -1.253486 -1.600428 6.088660 -0.414513 1.977470 4.377645 0.000000 0.000000 0.000000 0.586870 -0.716025 3.388984 6.801414 5.526223 -5.593250 -4.573445 19.167927 -33.736726 -0.213548 -44.869316 -6.039908 0.000000 0.000000 0.000000 -3.656714 0.167504 2.704628 6.338202 -8.584878 -6.072797 22.829364 -27.184160 -40.460108 -3.723800 40.231324 -5.392973 0.000000 0.000000 0.000000 
0.866621 36.526329 -14.476322 179.988161 -2.419464 -179.901199 -3.053949 -2.214619 13.754028 -0.668971 -5.381857 -12.271690 6.403651 6.031876 16.237494 2.649010 0.514028 8.178356 0.000000 0.000000 0.000000 2.617323 -0.451630 13.228982 -3.141714 3.889111 -8.137261 -8.361082 3.530783 11.838052 12.384562 5.471871 7.783710 0.000000 0.000000 0.000000 0.003338 1.279056 1.020566 -3.583331 0.320909 -12.456774 -0.854802 -3.525613 4.769024 -0.014993 -0.103960 0.014674 -1.217015 -1.618294 6.060072 -0.357865 2.020522 4.456137 0.000000 0.000000 0.000000 0.618716 -0.684769 3.380388 6.782527 5.547817 -5.667592 -4.616955 19.185788 -33.703080 -0.241460 -44.808565 -5.979442 0.000000 0.000000 0.000000 -3.625158 0.127793 2.701848 6.349308 -8.583198 -6.271965 22.763414 -27.245548 -40.489184 -3.575315 40.319908 -5.316125 0.000000 0.000000 0.000000 
0.878848 36.529587 -14.477575 179.922906 -2.391585 -179.937741 -3.134226 -2.157241 13.765943 -0.591685 -5.290471 -12.297707 6.454019 6.215237 16.282251 2.456008 0.379975 8.146748 0.000000 0.000000 0.000000 2.597681 -0.416062 13.227327 -3.248283 3.704418 -8.205547 -8.185823 3.310536 12.051456 12.438055 5.526356 7.726972 0.000000 0.000000 0.000000 -0.040672 1.203230 1.067919 -3.604771 0.258548 -12.478898 -0.792363 -3.392247 4.786285 0.060265 0.007752 0.015613 -1.219326 -1.513841 6.080841 -0.324053 2.035749 4.503008 0.000000 0.000000 0.000000 0.600378 -0.717491 3.400528 6.740361 5.442277 -5.430982 -4.722558 19.267600 -33.758435 -0.035383 -44.772474 -6.149851 0.000000 0.000000 0.000000 -3.622165 0.157141 2.673580 6.393851 -8.554622 -6.147533 22.811761 -27.335664 -40.379976 -3.808807 40.393575 -5.534536 0.000000 0.000000 0.000000 
0.899033 36.532200 -14.472659 179.940664 -2.451557 -179.858361 -3.128141 -2.209917 13.722755 -0.482855 -5.385046 -12.372679 6.374841 6.257945 16.314914 2.479839 0.404237 8.151132 0.000000 0.000000 0.000000 2.593777 -0.468114 13.173153 -3.212762 3.565185 -8.319357 -8.179255 3.414636 12.134859 12.418941 5.554719 7.750831 0.000000 0.000000 0.000000 -0.024981 1.249727 1.010485 -3.642666 0.241255 -12.525057 -0.784395 -3.414434 4.786799 0.022429 -0.019557 -0.015341 -1.157433 -1.491876 6.105321 -0.232790 2.103436 4.576628 0.000000 0.000000 0.000000 0.642613 -0.681552 3.392864 6.741693 5.399271 -5.507737 -4.689169 19.444049 -33.615961 -0.184524 -44.745488 -5.928400 0.000000 0.000000 0.000000 -3.579546 0.165229 2.698552 6.483177 -8.536983 -6.280382 22.763788 -27.460475 -40.410920 -3.679580 40.464759 -5.426117 0.000000 0.000000 0.000000 
0.938813 36.534550 -14.458191 179.822570 -2.407296 -179.931949 -3.221706 -2.060885 13.760732 -0.309923 -5.601127 -12.368673 6.173319 6.035210 16.203408 2.642105 0.522790 8.268872 0.000000 0.000000 0.000000 2.441625 -0.342564 13.201734 -3.044030 3.504026 -8.287594 -8.062410 3.511915 12.119080 12.219619 5.467809 7.811304 0.000000 0.000000 0.000000 -0.092463 1.166131 1.054239 -3.729187 0.255261 -12.449436 -0.781823 -3.328512 4.830206 -0.001341 0.029045 -0.000718 -1.073655 -1.583840 6.066343 -0.130501 2.178130 4.719230 0.000000 0.000000 0.000000 0.728230 -0.663661 3.338004 6.736207 5.318603 -5.521696 -4.770666 19.564529 -33.603831 -0.178458 -44.731302 -5.875257 0.000000 0.000000 0.000000 -3.501366 0.236685 2.659341 6.591882 -8.402337 -6.290330 22.759251 -27.660565 -40.344213 -3.711481 40.530131 -5.455601 0.000000 0.000000 0.000000 
